<svg viewBox="0 0 64 64" xmlns="http://www.w3.org/2000/svg">
  <rect width="64" height="64" rx="14" fill="#5B61C3"/>
  <path d="M16,16
           A4,4 0 0 1 20,12
           L38,12
           L48,22
           L48,48
           A4,4 0 0 1 44,52
           L20,52
           A4,4 0 0 1 16,48
           Z" fill="#FFFFFF"/>
  <path d="M38,12 L48,22 L38,22 Z" fill="#5B61C3" fill-opacity="0.22"/>
  <path d="M22,36 H27 L30,27 L33,43 L36,32 L39,36 H43"
        fill="none" stroke="#5B61C3" stroke-width="2.6"
        stroke-linecap="round" stroke-linejoin="round"/>
  <circle cx="43" cy="36" r="2" fill="#5B61C3"/>
  <line x1="22" y1="44" x2="38" y2="44" stroke="#5B61C3" stroke-opacity="0.35" stroke-width="2" stroke-linecap="round"/>
  <line x1="22" y1="49" x2="34" y2="49" stroke="#5B61C3" stroke-opacity="0.35" stroke-width="2" stroke-linecap="round"/>
</svg>